PathFileType	4	(X/Y/Z)	Patient4_TMGait_0pt7_02_left_29.trc.trc
DataRate	CameraRate	NumFrames	NumMarkers	Units	OrigDataRate	OrigDataStartFrame	OrigNumFrames
84.337349397591	84.337349397591	5	33	mm	84.337349397591	36	       141
Frame#	Time	Sacral			L.Shoulder			Chest			R.Shoulder			Neck			R.ASIS			L.ASIS			R.Thigh.Superior			R.Thigh.Lateral			R.Thigh.Inferior			R.Patella			L.Thigh.Superior			L.Thigh.Lateral			L.Thigh.Inferior			L.Patella			L.Shank.Superior			L.Shank.Lateral			L.Shank.Inferior			R.Shank.Superior			R.Shank.Lateral			R.Shank.Inferior			R.Heel			R.Midfoot.Superior			R.Midfoot.Lateral			R.Toe			L.Heel			L.Midfoot.Lateral			L.Midfoot.Superior			L.Toe			L.Elbow			L.Wrist			R.Elbow			R.Wrist			
		X1	Y1	Z1	X2	Y2	Z2	X3	Y3	Z3	X4	Y4	Z4	X5	Y5	Z5	X6	Y6	Z6	X7	Y7	Z7	X8	Y8	Z8	X9	Y9	Z9	X10	Y10	Z10	X11	Y11	Z11	X12	Y12	Z12	X13	Y13	Z13	X14	Y14	Z14	X15	Y15	Z15	X16	Y16	Z16	X17	Y17	Z17	X18	Y18	Z18	X19	Y19	Z19	X20	Y20	Z20	X21	Y21	Z21	X22	Y22	Z22	X23	Y23	Z23	X24	Y24	Z24	X25	Y25	Z25	X26	Y26	Z26	X27	Y27	Z27	X28	Y28	Z28	X29	Y29	Z29	X30	Y30	Z30	X31	Y31	Z31	X32	Y32	Z32	X33	Y33	Z33	

36	33.475000000000	861.957716963354	1009.321548602817	469.755600102183	1047.521774590352	1416.948638699947	265.128570419125	1166.704547492946	1343.190788716739	413.583821829806	1113.686176577568	1429.930996532313	591.953187715091	1074.290758836635	1480.956293518028	416.694584306839	1086.238402147357	929.735214280830	574.513714514988	1064.571938595946	945.092677775919	300.828233299523	1089.637497039797	716.810484609055	556.553733277362	990.620839146521	622.500450076277	622.603001067493	1056.999727536084	552.664034271675	547.465002276721	1036.471150058830	452.394620397613	563.613429932833	1141.719610463219	766.762231991902	343.943032438488	1082.666789071806	637.413220463787	274.527150870227	1180.310279295246	574.163907440468	339.375085352478	1195.044488095294	501.115610739880	344.964312658496	1168.772888148007	425.782150426885	334.240981713322	1085.494924055435	310.106209928307	276.192314689460	1139.534416682703	197.416472432900	342.717239703614	967.505175857454	383.818632921479	572.479885688596	856.870006294881	326.486014856562	638.135514544799	852.435246188961	218.845501237208	583.316769068639	659.775868264421	112.239989297046	562.836955981710	838.973212478882	107.120485699136	595.578837941968	736.909770413795	74.811949968148	634.062519667426	934.652598375291	35.807223200916	618.831260341541	1014.247400073154	40.196540857000	374.599960580150	1091.278241450936	37.075126666927	297.070147896261	1173.597011970435	97.439380674036	327.484407674842	1303.043254107339	42.949242512096	304.059912711026	884.940881529313	1100.424740539207	188.692270691450	830.211561795266	845.311396475959	209.493675496779	1255.729634365207	1121.751340585023	690.130948988369	1381.573869132037	1292.971020130692	568.020170258871	
37	33.486857142857	862.007425610458	1010.381390583216	466.929973557406	1047.947065760638	1418.354241928826	262.845320133402	1166.780666469666	1344.614177948660	411.548162988797	1113.219670783265	1431.242322757339	589.847619369305	1074.218481050704	1482.262016284814	414.431872198979	1086.150052967438	931.016204000071	571.931875650211	1064.992642311098	946.509279746342	298.445075132136	1093.803685230926	718.730025852013	554.469052328929	997.160071099476	622.583943140144	620.535236851251	1065.740339471681	553.596404033301	545.868257596563	1046.055420117230	451.660183106729	563.350105384363	1141.167622269176	766.226862180976	340.871919298814	1080.100810221687	637.217661321799	272.996149713681	1177.259108441275	573.299610688250	337.969537341742	1191.278477018131	500.318264897551	344.021187589488	1164.182126017655	425.238214963219	333.302458625296	1079.676246413593	310.259273721984	275.769124353530	1132.722200549134	197.238927407290	342.481700444607	974.521329524468	384.347545655577	572.166175695697	861.272372387216	331.480878310360	637.154576784661	854.009596951662	223.348797714225	583.761457165656	657.908096462720	125.275484787929	563.169226522460	836.416284168315	110.043186153562	596.201209352145	732.671373020376	83.273724924951	634.226412007743	926.892719149292	34.980783657818	618.622369101879	1006.135795130749	40.362205682568	374.642660739664	1083.108282985736	37.237589202129	297.134392142856	1165.488046676003	97.535582679077	327.449323856619	1294.858733680106	42.801949149302	303.865838025931	888.517498759609	1099.925740500143	185.368096548962	842.289328905795	842.873762702574	205.318001822445	1248.510667783367	1119.636144753878	689.779010878312	1380.106364120900	1286.222032975888	567.211371226170	
38	33.498714285714	861.874438030826	1011.295033305197	464.234021362492	1048.388248264499	1419.679975837521	260.643227859790	1166.718128344428	1345.974890082114	409.726158004107	1112.383232630941	1432.464551490486	587.903476013876	1073.919845298713	1483.474338308505	412.266379757217	1085.909087168151	932.188487241413	569.507165938021	1065.224220302945	947.811682330365	296.273255794310	1098.187007318311	720.775339027542	552.475473885250	1004.100693873854	622.718721005381	618.560775756987	1074.810188055307	554.723070505060	544.226726448058	1056.065627095763	451.223847292912	562.799125866428	1140.177699030681	765.443911862785	337.923871266053	1077.250149016635	636.997971144319	271.420683114008	1173.827098297102	572.391937292911	336.624488493772	1187.126319248557	499.473254256172	342.974105747912	1159.237923148599	424.652235535243	332.268976631340	1073.550483998173	310.317710665910	275.321616698652	1125.746188776393	197.043629174335	342.217698848183	982.129143599426	385.088631963806	571.635838865336	866.519797743612	336.759943488015	636.067961340073	856.346026268198	228.262653694190	584.077720514205	657.264690477475	139.332912150305	563.394377828051	834.422806391686	113.512337197263	596.782211333695	729.232825320865	92.743914800057	634.324588693643	919.174166725539	33.931730866603	618.442098492468	997.995395295983	40.528731885419	374.721798700605	1074.905951517354	37.351754588222	297.223764086301	1157.373323217447	97.551030844017	327.410744872877	1286.653356082273	42.554106755291	303.681435528916	892.102044345881	1099.456557155492	181.844036687763	855.366463096479	840.602701925717	200.886124816203	1240.402587993429	1117.372254270216	689.694968576922	1379.162534556027	1278.017897770937	566.930531729692	
39	33.510571428571	861.530258609184	1012.030864688923	461.680653549394	1048.808930908271	1420.882264472780	258.541721714490	1166.497387458181	1347.221695298089	408.125106020581	1111.192475266911	1433.558309513691	586.133396348222	1073.399869305950	1484.561946145795	410.221539377808	1085.501764705998	933.223321528769	567.235571306430	1065.240101048346	948.967691293049	294.265213819024	1102.691243192710	722.954551191139	550.515063534982	1011.371709378687	622.948752669198	616.685904069489	1084.079082745764	556.084438147160	542.515153285817	1066.401541926016	451.125703744565	561.939262671557	1138.838019552738	764.524705163620	335.137016177732	1074.242198092788	636.786855906135	269.824390131395	1170.152599979582	571.482406459111	335.331133712427	1182.736375086717	498.605269195517	341.846432077346	1154.081911500741	424.024108243393	331.182549021914	1067.252738956916	310.307417047985	274.835841928852	1118.654869097034	196.825265197739	341.937780578904	990.250217993022	386.053839762516	570.859423642546	872.560221752499	342.262706350496	634.862453488018	859.428865805389	233.536503349690	584.220516141923	657.922382039748	154.212548053282	563.438365966562	833.030387611406	117.528507428540	597.292734920859	726.682394839908	103.117286580593	634.302230000778	911.570495498183	32.688441556354	618.317228725036	989.820414170970	40.695305245479	374.809822264278	1066.671661599355	37.430179561073	297.315774679945	1149.247884866009	97.501996840913	327.367182666846	1278.428056684647	42.233002502388	303.507452367278	895.766713468451	1098.919192160697	178.134571313583	869.409185274490	838.527529627572	196.227331577758	1231.513592480954	1114.983818761709	689.819815813938	1378.697570989742	1268.292930354401	567.251595145195	
40	33.522428571429	860.954077409892	1012.580658750078	459.264982896626	1049.159127852604	1421.935354862077	256.560177230586	1166.100551528035	1348.322523038890	406.740003769643	1109.672515108521	1434.497576225331	584.544580734042	1072.670600201095	1485.507006078909	408.319185968556	1084.912916186132	934.109931452487	565.108117092496	1065.035408033749	949.956842442526	292.370434215454	1107.204536743242	725.282670029366	548.521931973308	1018.884637589380	623.329818026892	614.919759354688	1093.419467354726	557.729850610742	540.728573989685	1076.978621493060	451.407880143419	560.801908909962	1137.256671816040	763.557437870235	332.528326734006	1071.162902103199	636.588253677021	268.249105648586	1166.348510616994	570.583783480416	334.088428073002	1178.228942621787	497.723931678703	340.692300481712	1148.828566523446	423.349410682008	330.101209364492	1060.894409407342	310.246427875117	274.318994373251	1111.488305700682	196.575539025206	341.663008989267	998.810322511139	387.262179896612	569.849427125309	879.321693314770	347.927235830355	633.536109449410	863.249262394987	239.103837115665	584.161995212020	659.929235863877	169.627843181195	563.214783664234	832.305209280258	122.044959299744	597.700013425074	725.109355586077	114.207008358539	634.096660090249	904.222805827716	31.331419911946	618.276555965018	981.609580556379	40.853474416518	374.886262428897	1058.407678324712	37.482463959756	297.393009223129	1141.103910135641	97.408567945039	327.320560721122	1270.183281080528	41.876951107522	303.343546498656	899.601718990444	1098.226222330683	174.258422030278	884.390882725314	836.680720405353	191.378373614999	1221.960438865699	1112.497426009137	690.091500150776	1378.626082446089	1256.973896278741	568.245492535524	
